<?xml version="1.0" encoding="UTF-8"?>
<svg width="239px" height="40px" viewBox="0 0 239 40" version="1.1" xmlns="http://www.w3.org/2000/svg" xmlns:xlink="http://www.w3.org/1999/xlink">
    <!-- Generator: Sketch 56.3 (81716) - https://sketch.com -->
    <title>7S-Logo_horizontal_RGB (3)</title>
    <desc>Created with Sketch.</desc>
    <defs>
        <polygon id="path-1" points="0.101047794 0.117742647 39.8470993 0.117742647 39.8470993 39.9534191 0.101047794 39.9534191"></polygon>
    </defs>
    <g id="Symbols" stroke="none" stroke-width="1" fill="none" fill-rule="evenodd">
        <g id="Logo/color-blue">
            <g id="7S-Logo_horizontal_RGB-(3)" transform="translate(0.000000, -0.000000)">
                <path d="M237.907366,12.7741985 L236.57002,14.8540257 C235.406213,13.8883603 233.871605,13.1704816 231.965756,13.1704816 C229.985219,13.1704816 228.549022,14.0618989 228.549022,16.0178327 C228.549022,17.6266893 229.588936,18.2457169 232.658592,18.8893474 C237.090197,19.8550129 238.724096,21.3650184 238.724096,24.1627243 C238.724096,27.4555643 236.223822,29.6830092 232.237706,29.6830092 C229.53929,29.6830092 227.286803,28.8412371 225.578217,27.3558346 L226.989371,25.2518437 C228.276632,26.5395441 230.331417,27.3558346 232.312393,27.3558346 C234.589923,27.3558346 236.198779,26.3163603 236.198779,24.3608658 C236.198779,22.7761728 235.010809,21.9844853 231.941153,21.3404154 C227.509548,20.37475 226.024145,18.8397022 226.024145,16.1162445 C226.024145,12.9226949 228.400965,10.843307 231.990358,10.843307 C234.441426,10.843307 236.471169,11.6354338 237.907366,12.7741985" id="Fill-12" fill="#004A5E"></path>
                <path d="M224.004947,16.8099596 C224.004947,19.4587298 222.519544,21.241125 220.316263,22.0332518 L224.871761,29.3618529 L221.900517,29.3618529 L217.64289,22.4541379 L214.07766,22.4541379 L214.07766,29.3618529 L211.552783,29.3618529 L211.552783,11.1653419 L217.593244,11.1653419 C221.20768,11.1653419 224.004947,13.1704816 224.004947,16.8099596 Z M214.07766,13.3932261 L214.07766,20.2262537 L217.3705,20.2262537 C219.846171,20.2262537 221.455028,19.0624467 221.455028,16.8099596 C221.455028,14.581636 219.821129,13.3932261 217.3705,13.3932261 L214.07766,13.3932261 L214.07766,13.3932261 Z" id="Fill-11" fill="#004A5E"></path>
                <polyline id="Fill-10" fill="#004A5E" points="208.731792 13.4929559 199.992476 13.4929559 199.992476 19.0128015 207.667276 19.0128015 207.667276 21.2657279 199.992476 21.2657279 199.992476 27.0346783 208.929494 27.0346783 208.929494 29.3618529 197.46716 29.3618529 197.46716 11.1653419 208.731792 11.1653419 208.731792 13.4929559"></polyline>
                <path d="M195.067934,20.2508566 C195.067934,25.9947647 191.478101,29.3618529 185.289143,29.3618529 L179.792583,29.3618529 L179.792583,11.1653419 L185.289143,11.1653419 C191.428456,11.1653419 195.067934,14.5078272 195.067934,20.2508566 Z M182.317899,13.5171195 L182.317899,27.0346783 L185.214456,27.0346783 C189.943053,27.0346783 192.517575,24.5335257 192.517575,20.2508566 C192.517575,15.9927904 189.893408,13.5171195 185.214456,13.5171195 L182.317899,13.5171195 L182.317899,13.5171195 Z" id="Fill-9" fill="#004A5E"></path>
                <polyline id="Fill-8" fill="#004A5E" points="176.352564 29.6830092 176.253713 29.6830092 164.89023 17.1315551 164.89023 29.3618529 162.364914 29.3618529 162.364914 10.843307 162.464204 10.843307 173.827248 23.3701581 173.827248 11.1653419 176.352564 11.1653419 176.352564 29.6830092"></polyline>
                <polyline id="Fill-7" fill="#004A5E" points="159.898469 13.4929559 151.159592 13.4929559 151.159592 19.0128015 158.833952 19.0128015 158.833952 21.2657279 151.159592 21.2657279 151.159592 27.0346783 160.09661 27.0346783 160.09661 29.3618529 148.634276 29.3618529 148.634276 11.1653419 159.898469 11.1653419 159.898469 13.4929559"></polyline>
                <path d="M145.40514,12.7741985 L144.068233,14.8540257 C142.904866,13.8883603 141.369379,13.1704816 139.463529,13.1704816 C137.482993,13.1704816 136.047235,14.0618989 136.047235,16.0178327 C136.047235,17.6266893 137.08671,18.2457169 140.156366,18.8893474 C144.587971,19.8550129 146.221869,21.3650184 146.221869,24.1627243 C146.221869,27.4555643 143.721596,29.6830092 139.735919,29.6830092 C137.037064,29.6830092 134.784577,28.8412371 133.075991,27.3558346 L134.487145,25.2518437 C135.774846,26.5395441 137.829191,27.3558346 139.809728,27.3558346 C142.087697,27.3558346 143.696993,26.3163603 143.696993,24.3608658 C143.696993,22.7761728 142.508583,21.9844853 139.438487,21.3404154 C135.007322,20.37475 133.521919,18.8397022 133.521919,16.1162445 C133.521919,12.9226949 135.8983,10.843307 139.488132,10.843307 C141.9392,10.843307 143.968943,11.6354338 145.40514,12.7741985" id="Fill-6" fill="#004A5E"></path>
                <polyline id="Fill-5" fill="#004A5E" points="124.06736 29.6830092 123.96807 29.6830092 112.605026 17.1315551 112.605026 29.3618529 110.07971 29.3618529 110.07971 10.843307 110.179 10.843307 121.542044 23.3701581 121.542044 11.1653419 124.06736 11.1653419 124.06736 29.6830092"></polyline>
                <polyline id="Fill-4" fill="#004A5E" points="107.481463 13.4929559 98.7421471 13.4929559 98.7421471 19.0128015 106.416947 19.0128015 106.416947 21.2657279 98.7421471 21.2657279 98.7421471 27.0346783 107.679605 27.0346783 107.679605 29.3618529 96.2172702 29.3618529 96.2172702 11.1653419 107.481463 11.1653419 107.481463 13.4929559"></polyline>
                <polyline id="Fill-3" fill="#004A5E" points="85.7469614 29.6584063 85.647671 29.6584063 77.0818934 11.1653419 79.829954 11.1653419 85.6973162 24.0884761 91.5646783 11.1653419 94.2876967 11.1653419 85.7469614 29.6584063"></polyline>
                <polygon id="Fill-2" fill="#004A5E" points="67.0144577 13.4929559 67.0144577 19.0128015 74.688818 19.0128015 74.688818 21.2657279 67.0144577 21.2657279 67.0144577 27.0346783 75.9514761 27.0346783 75.9514761 29.3618529 64.4891415 29.3618529 64.4891415 11.1653419 75.7533346 11.1653419 75.7533346 13.4929559"></polygon>
                <path d="M61.2595662,12.7741985 L59.9230993,14.8540257 C58.7592923,13.8883603 57.2242445,13.1704816 55.3179559,13.1704816 C53.3378585,13.1704816 51.9016618,14.0618989 51.9016618,16.0178327 C51.9016618,17.6266893 52.9415754,18.2457169 56.0112316,18.8893474 C60.4428364,19.8550129 62.0767353,21.3650184 62.0767353,24.1627243 C62.0767353,27.4555643 59.5764614,29.6830092 55.5907849,29.6830092 C52.8919301,29.6830092 50.6390037,28.8412371 48.9308566,27.3558346 L50.342011,25.2518437 C51.6297114,26.5395441 53.684057,27.3558346 55.6645938,27.3558346 C57.9425625,27.3558346 59.5518585,26.3163603 59.5518585,24.3608658 C59.5518585,22.7761728 58.3634485,21.9844853 55.2933529,21.3404154 C50.8621875,20.37475 49.3767849,18.8397022 49.3767849,16.1162445 C49.3767849,12.9226949 51.7531654,10.843307 55.3429982,10.843307 C57.7940662,10.843307 59.8238088,11.6354338 61.2595662,12.7741985" id="Fill-1" fill="#004A5E"></path>
                <g id="Group-20">
                    <mask id="mask-2" fill="white">
                        <use xlink:href="#path-1"></use>
                    </mask>
                    <g id="Clip-18"></g>
                    <path d="M12.1846066,14.368557 C12.0528051,13.7345919 11.9803143,13.0465882 11.9803143,12.2997132 C11.9803143,6.18807904 16.7818419,3.96986029 20.0087812,3.96986029 L31.6903456,3.96986029 C28.3909154,1.54998529 24.3217647,0.117742647 19.9160809,0.117742647 C10.8828474,0.117742647 3.25769301,6.12920772 0.811457721,14.368557 L12.1846066,14.368557" id="Fill-17" fill="#00B1E1" mask="url(#mask-2)"></path>
                    <path d="M37.2545643,10.2291121 L20.0483217,10.2291121 C18.2395662,10.3103897 18.2395662,11.7035312 18.2395662,12.2997132 C18.2395662,13.6673732 18.7513952,13.9393235 19.026421,14.0851838 C19.4372022,14.3030956 19.9152022,14.3606489 19.9929651,14.368557 L27.9682721,14.368557 C31.1956507,14.368557 35.9971783,16.5867757 35.9971783,22.6979706 C35.9971783,28.8091654 31.1956507,31.0273842 27.9682721,31.0273842 L17.2058033,31.0273842 L18.7773162,28.3096379 L27.9568493,28.3096379 C28.0100092,28.3096379 33.2680092,28.2454945 33.2680092,22.6979706 C33.2680092,17.1504467 28.0100092,17.0863033 27.9568493,17.0863033 L21.1761029,17.0876213 L21.1769816,17.0863033 L19.9340937,17.0863033 C19.3313217,17.0647757 15.5218199,16.7537243 15.5218199,12.2997132 C15.5218199,7.58385662 19.8264559,7.51224449 20.0087812,7.51136581 L35.4067077,7.51136581 C35.1791305,7.23106801 34.9462812,6.95560294 34.7042059,6.68804596 L20.0087812,6.68804596 C19.9560607,6.68804596 14.6980607,6.75218934 14.6980607,12.2997132 C14.6980607,14.9511195 15.8992114,16.3482151 17.1592335,17.0863033 L0.205610294,17.0863033 C0.165191176,17.3591324 0.130483456,17.6337187 0.101047794,17.9096232 L19.7491324,17.9096232 L8.90670404,36.6618971 C9.13559926,36.8134688 9.36625184,36.9632831 9.60129779,37.1056287 L20.6998603,17.9113805 L27.9559706,17.9096232 C28.1391746,17.9105018 32.4446893,17.9825533 32.4446893,22.6979706 C32.4446893,27.4133879 28.1391746,27.485 27.9568493,27.4858787 L19.2535588,27.4858787 L20.8250717,24.7681324 L27.9287316,24.7681324 C29.7374871,24.6872941 29.7379265,23.2937132 29.7379265,22.6979706 C29.7379265,22.1017886 29.7379265,20.7086471 27.9287316,20.6278088 L22.2678585,20.6286875 L12.0207335,38.3511526 C14.4423658,39.3972169 17.1109062,39.9797794 19.9160809,39.9797794 C30.9237004,39.9797794 39.8470993,31.0563805 39.8470993,20.048761 C39.8470993,16.4765018 38.901204,13.1283051 37.2545643,10.2291121" id="Fill-19" fill="#00B1E1" mask="url(#mask-2)"></path>
                    <path d="M0,20.6278088 C0.163433824,26.3453566 2.73312316,31.4574963 6.73373713,34.9902151 L15.0381085,20.6278088 L0,20.6278088" id="Fill-14" fill="#00B1E1" mask="url(#mask-2)"></path>
                </g>
            </g>
        </g>
    </g>
</svg>